<svg width="48" height="48" viewBox="0 0 48 48" fill="none" xmlns="http://www.w3.org/2000/svg">
<path d="M8 42C6.9 42 5.95833 41.6083 5.175 40.825C4.39167 40.0417 4 39.1 4 38V16C4 14.9 4.39167 13.9583 5.175 13.175C5.95833 12.3917 6.9 12 8 12H16V8C16 6.9 16.3917 5.95833 17.175 5.175C17.9583 4.39167 18.9 4 20 4H28C29.1 4 30.0417 4.39167 30.825 5.175C31.6083 5.95833 32 6.9 32 8V12H40C41.1 12 42.0417 12.3917 42.825 13.175C43.6083 13.9583 44 14.9 44 16V38C44 39.1 43.6083 40.0417 42.825 40.825C42.0417 41.6083 41.1 42 40 42H8ZM20 12H28V8H20V12ZM40 30H30V34H18V30H8V38H40V30ZM22 30H26V26H22V30ZM8 26H18V22H30V26H40V16H8V26Z" fill="black"/>
</svg>
