<svg width="36" height="36" viewBox="0 0 36 36" fill="none" xmlns="http://www.w3.org/2000/svg">
<path d="M17.999 3C15.2143 3 12.5436 4.10625 10.5744 6.07538C8.60529 8.04451 7.49904 10.7152 7.49904 13.5V18.792C7.49926 19.0247 7.44534 19.2542 7.34154 19.4625L4.76604 24.612C4.64023 24.8636 4.58082 25.1431 4.59346 25.4241C4.6061 25.7051 4.69037 25.9782 4.83826 26.2175C4.98615 26.4568 5.19275 26.6543 5.43844 26.7912C5.68413 26.9282 5.96076 27 6.24204 27H29.756C30.0373 27 30.314 26.9282 30.5596 26.7912C30.8053 26.6543 31.0119 26.4568 31.1598 26.2175C31.3077 25.9782 31.392 25.7051 31.4046 25.4241C31.4173 25.1431 31.3579 24.8636 31.232 24.612L28.658 19.4625C28.5537 19.2544 28.4993 19.0248 28.499 18.792V13.5C28.499 10.7152 27.3928 8.04451 25.4237 6.07538C23.4545 4.10625 20.7838 3 17.999 3ZM17.999 31.5C17.0681 31.5003 16.16 31.2119 15.3998 30.6746C14.6395 30.1374 14.0646 29.3776 13.754 28.5H22.244C21.9335 29.3776 21.3586 30.1374 20.5983 30.6746C19.8381 31.2119 18.93 31.5003 17.999 31.5Z" fill="white"/>
</svg>
