<svg width="55" height="55" viewBox="0 0 55 55" fill="none" xmlns="http://www.w3.org/2000/svg">
<path d="M13.4064 39.1877C15.3543 37.6981 17.5314 36.5236 19.9377 35.6642C22.3439 34.8049 24.8647 34.3752 27.5002 34.3752C30.1356 34.3752 32.6564 34.8049 35.0627 35.6642C37.4689 36.5236 39.646 37.6981 41.5939 39.1877C42.9307 37.6217 43.9715 35.8457 44.7163 33.8595C45.4611 31.8734 45.8335 29.7536 45.8335 27.5002C45.8335 22.4203 44.0479 18.0948 40.4767 14.5236C36.9055 10.9524 32.58 9.16683 27.5002 9.16683C22.4203 9.16683 18.0948 10.9524 14.5236 14.5236C10.9524 18.0948 9.16683 22.4203 9.16683 27.5002C9.16683 29.7536 9.53923 31.8734 10.284 33.8595C11.0288 35.8457 12.0696 37.6217 13.4064 39.1877ZM27.5002 29.7918C25.2467 29.7918 23.3465 29.0184 21.7996 27.4715C20.2528 25.9246 19.4793 24.0245 19.4793 21.771C19.4793 19.5175 20.2528 17.6174 21.7996 16.0705C23.3465 14.5236 25.2467 13.7502 27.5002 13.7502C29.7536 13.7502 31.6538 14.5236 33.2007 16.0705C34.7476 17.6174 35.521 19.5175 35.521 21.771C35.521 24.0245 34.7476 25.9246 33.2007 27.4715C31.6538 29.0184 29.7536 29.7918 27.5002 29.7918ZM27.5002 50.4168C24.33 50.4168 21.3509 49.8153 18.5627 48.6121C15.7745 47.409 13.3491 45.7762 11.2866 43.7137C9.22412 41.6512 7.59131 39.2259 6.38818 36.4377C5.18506 33.6495 4.5835 30.6703 4.5835 27.5002C4.5835 24.33 5.18506 21.3509 6.38818 18.5627C7.59131 15.7745 9.22412 13.3491 11.2866 11.2866C13.3491 9.22412 15.7745 7.59131 18.5627 6.38818C21.3509 5.18506 24.33 4.5835 27.5002 4.5835C30.6703 4.5835 33.6495 5.18506 36.4377 6.38818C39.2259 7.59131 41.6512 9.22412 43.7137 11.2866C45.7762 13.3491 47.409 15.7745 48.6121 18.5627C49.8153 21.3509 50.4168 24.33 50.4168 27.5002C50.4168 30.6703 49.8153 33.6495 48.6121 36.4377C47.409 39.2259 45.7762 41.6512 43.7137 43.7137C41.6512 45.7762 39.2259 47.409 36.4377 48.6121C33.6495 49.8153 30.6703 50.4168 27.5002 50.4168ZM27.5002 45.8335C29.5245 45.8335 31.4342 45.5375 33.2293 44.9455C35.0245 44.3535 36.6668 43.5036 38.1564 42.396C36.6668 41.2884 35.0245 40.4385 33.2293 39.8465C31.4342 39.2545 29.5245 38.9585 27.5002 38.9585C25.4759 38.9585 23.5661 39.2545 21.771 39.8465C19.9759 40.4385 18.3335 41.2884 16.8439 42.396C18.3335 43.5036 19.9759 44.3535 21.771 44.9455C23.5661 45.5375 25.4759 45.8335 27.5002 45.8335ZM27.5002 25.2085C28.4932 25.2085 29.3144 24.8838 29.9637 24.2345C30.613 23.5852 30.9377 22.7641 30.9377 21.771C30.9377 20.7779 30.613 19.9568 29.9637 19.3075C29.3144 18.6582 28.4932 18.3335 27.5002 18.3335C26.5071 18.3335 25.6859 18.6582 25.0366 19.3075C24.3873 19.9568 24.0627 20.7779 24.0627 21.771C24.0627 22.7641 24.3873 23.5852 25.0366 24.2345C25.6859 24.8838 26.5071 25.2085 27.5002 25.2085Z" fill="black"/>
</svg>
