<svg width="16" height="16" viewBox="0 0 16 16" fill="none" xmlns="http://www.w3.org/2000/svg">
<path d="M9.15 14L4.66667 9.33333V8H7C7.58889 8 8.09722 7.80833 8.525 7.425C8.95278 7.04167 9.21111 6.56667 9.3 6H4V4.66667H9.1C8.91111 4.27778 8.63056 3.95833 8.25833 3.70833C7.88611 3.45833 7.46667 3.33333 7 3.33333H4V2H12V3.33333H9.83333C9.98889 3.52222 10.1278 3.72778 10.25 3.95C10.3722 4.17222 10.4667 4.41111 10.5333 4.66667H12V6H10.65C10.5611 6.94444 10.1722 7.73611 9.48333 8.375C8.79444 9.01389 7.96667 9.33333 7 9.33333H6.51667L11 14H9.15Z" fill="black"/>
</svg>
