<svg width="30" height="30" viewBox="0 0 30 30" fill="none" xmlns="http://www.w3.org/2000/svg">
<path d="M17.1562 26.25L8.75 17.5V15H13.125C14.2292 15 15.1823 14.6406 15.9844 13.9219C16.7865 13.2031 17.2708 12.3125 17.4375 11.25H7.5V8.75H17.0625C16.7083 8.02083 16.1823 7.42188 15.4844 6.95312C14.7865 6.48438 14 6.25 13.125 6.25H7.5V3.75H22.5V6.25H18.4375C18.7292 6.60417 18.9896 6.98958 19.2188 7.40625C19.4479 7.82292 19.625 8.27083 19.75 8.75H22.5V11.25H19.9688C19.8021 13.0208 19.0729 14.5052 17.7812 15.7031C16.4896 16.901 14.9375 17.5 13.125 17.5H12.2188L20.625 26.25H17.1562Z" fill="black"/>
</svg>
