<svg width="48" height="48" viewBox="0 0 48 48" fill="none" xmlns="http://www.w3.org/2000/svg">
<path d="M27.45 42L14 28V24H21C22.7667 24 24.2917 23.425 25.575 22.275C26.8583 21.125 27.6333 19.7 27.9 18H12V14H27.3C26.7333 12.8333 25.8917 11.875 24.775 11.125C23.6583 10.375 22.4 10 21 10H12V6H36V10H29.5C29.9667 10.5667 30.3833 11.1833 30.75 11.85C31.1167 12.5167 31.4 13.2333 31.6 14H36V18H31.95C31.6833 20.8333 30.5167 23.2083 28.45 25.125C26.3833 27.0417 23.9 28 21 28H19.55L33 42H27.45Z" fill="black"/>
</svg>
