<svg width="24" height="24" viewBox="0 0 24 24" fill="none" xmlns="http://www.w3.org/2000/svg">
<path d="M7.9 13.2998L9.35 11.8498C9.2 11.0665 9.425 10.3331 10.025 9.64981C10.625 8.96647 11.4 8.69981 12.35 8.84981L13.8 7.39981C13.5167 7.26647 13.2292 7.16647 12.9375 7.0998C12.6458 7.03314 12.3333 6.9998 12 6.9998C10.75 6.9998 9.6875 7.4373 8.8125 8.3123C7.9375 9.18731 7.5 10.2498 7.5 11.4998C7.5 11.8331 7.53333 12.1456 7.6 12.4373C7.66667 12.729 7.76667 13.0165 7.9 13.2998ZM4.7 16.4498L6.15 15.0498C5.51667 14.5665 4.95417 14.0373 4.4625 13.4623C3.97083 12.8873 3.55 12.2331 3.2 11.4998C4.03333 9.81647 5.22917 8.47897 6.7875 7.48731C8.34583 6.49564 10.0833 5.9998 12 5.9998C12.4833 5.9998 12.9583 6.03314 13.425 6.0998C13.8917 6.16647 14.35 6.26647 14.8 6.39981L16.35 4.8498C15.6667 4.56647 14.9667 4.35397 14.25 4.2123C13.5333 4.07064 12.7833 3.9998 12 3.9998C9.48333 3.9998 7.24167 4.69564 5.275 6.08731C3.30833 7.47897 1.88333 9.28314 1 11.4998C1.38333 12.4831 1.8875 13.3956 2.5125 14.2373C3.1375 15.079 3.86667 15.8165 4.7 16.4498ZM4.2 22.5998L8.4 18.4498C8.98333 18.6331 9.57083 18.7706 10.1625 18.8623C10.7542 18.954 11.3667 18.9998 12 18.9998C14.5167 18.9998 16.7583 18.304 18.725 16.9123C20.6917 15.5206 22.1167 13.7165 23 11.4998C22.65 10.6165 22.2083 9.79564 21.675 9.03731C21.1417 8.27897 20.5333 7.5998 19.85 6.9998L22.6 4.1998L21.2 2.7998L2.8 21.1998L4.2 22.5998ZM18.45 8.39981C18.9333 8.83314 19.375 9.30814 19.775 9.82481C20.175 10.3415 20.5167 10.8998 20.8 11.4998C19.9667 13.1831 18.7708 14.5206 17.2125 15.5123C15.6542 16.504 13.9167 16.9998 12 16.9998C11.6667 16.9998 11.3417 16.979 11.025 16.9373C10.7083 16.8956 10.3833 16.8498 10.05 16.7998L10.95 15.8498C11.1333 15.8998 11.3083 15.9373 11.475 15.9623C11.6417 15.9873 11.8167 15.9998 12 15.9998C13.25 15.9998 14.3125 15.5623 15.1875 14.6873C16.0625 13.8123 16.5 12.7498 16.5 11.4998C16.5 11.3165 16.4875 11.1415 16.4625 10.9748C16.4375 10.8081 16.4 10.6331 16.35 10.4498L18.45 8.39981Z" fill="black"/>
</svg>
